<mxfile host="app.diagrams.net" agent="Mozilla/5.0 (Windows NT 10.0; Win64; x64) AppleWebKit/537.36 (KHTML, like Gecko) Chrome/131.0.0.0 Safari/537.36" version="26.0.6">
  <diagram name="Страница — 1" id="4doBGt30G2Ha5vvTXJT7">
    <mxGraphModel dx="2816" dy="1713" grid="0" gridSize="10" guides="0" tooltips="1" connect="1" arrows="1" fold="1" page="1" pageScale="1" pageWidth="1169" pageHeight="827" math="0" shadow="0">
      <root>
        <mxCell id="0" />
        <mxCell id="1" parent="0" />
        <object placeholders="1" c4Name="Студенты" c4Type="Person" c4Description="Поиск, покупка и прохождение курсов" label="&lt;font style=&quot;font-size: 16px&quot;&gt;&lt;b&gt;%c4Name%&lt;/b&gt;&lt;/font&gt;&lt;div&gt;[%c4Type%]&lt;/div&gt;&lt;br&gt;&lt;div&gt;&lt;font style=&quot;font-size: 11px&quot;&gt;&lt;font color=&quot;#cccccc&quot;&gt;%c4Description%&lt;/font&gt;&lt;/font&gt;&lt;/div&gt;" id="eLePNKF138r7Ds8HGAkp-1">
          <mxCell style="html=1;fontSize=11;dashed=0;whiteSpace=wrap;fillColor=#083F75;strokeColor=#06315C;fontColor=#ffffff;shape=mxgraph.c4.person2;align=center;metaEdit=1;points=[[0.5,0,0],[1,0.5,0],[1,0.75,0],[0.75,1,0],[0.5,1,0],[0.25,1,0],[0,0.75,0],[0,0.5,0]];resizable=0;hachureGap=4;fontFamily=Times New Roman;" parent="1" vertex="1">
            <mxGeometry x="-50" y="70" width="200" height="180" as="geometry" />
          </mxCell>
        </object>
        <mxCell id="eLePNKF138r7Ds8HGAkp-38" style="edgeStyle=orthogonalEdgeStyle;rounded=0;orthogonalLoop=1;jettySize=auto;html=1;exitX=0.995;exitY=0.172;exitDx=0;exitDy=0;exitPerimeter=0;dashed=1;" parent="1" source="eLePNKF138r7Ds8HGAkp-3" target="eLePNKF138r7Ds8HGAkp-21" edge="1">
          <mxGeometry relative="1" as="geometry" />
        </mxCell>
        <mxCell id="eLePNKF138r7Ds8HGAkp-39" value="Отправляет push-уведомления&lt;div&gt;&amp;nbsp;с помощью&lt;/div&gt;" style="edgeLabel;html=1;align=center;verticalAlign=middle;resizable=0;points=[];fontFamily=Times New Roman;fontStyle=0;fontSize=13;" parent="eLePNKF138r7Ds8HGAkp-38" vertex="1" connectable="0">
          <mxGeometry x="0.193" y="1" relative="1" as="geometry">
            <mxPoint x="81" as="offset" />
          </mxGeometry>
        </mxCell>
        <object placeholders="1" c4Name="Онлайн школа U-Verse" c4Type="Software System" c4Description="Площадка для обучения людей" label="&lt;font style=&quot;font-size: 16px&quot;&gt;&lt;b&gt;%c4Name%&lt;/b&gt;&lt;/font&gt;&lt;div&gt;[%c4Type%]&lt;/div&gt;&lt;br&gt;&lt;div&gt;&lt;font style=&quot;font-size: 11px&quot;&gt;&lt;font color=&quot;#cccccc&quot;&gt;%c4Description%&lt;/font&gt;&lt;/font&gt;&lt;/div&gt;" id="eLePNKF138r7Ds8HGAkp-3">
          <mxCell style="rounded=1;whiteSpace=wrap;html=1;labelBackgroundColor=none;fillColor=#0000CC;fontColor=#ffffff;align=center;arcSize=10;strokeColor=#0D5091;metaEdit=1;resizable=0;points=[[0.25,0,0],[0.5,0,0],[0.75,0,0],[1,0.25,0],[1,0.5,0],[1,0.75,0],[0.75,1,0],[0.5,1,0],[0.25,1,0],[0,0.75,0],[0,0.5,0],[0,0.25,0]];hachureGap=4;fontFamily=Times New Roman;" parent="1" vertex="1">
            <mxGeometry x="500" y="420" width="240" height="120" as="geometry" />
          </mxCell>
        </object>
        <object placeholders="1" c4Name="C-4 Context для Онлайн школы U-Verse" c4Type="SystemScopeBoundary" c4Application="Пример диаграммы для Онлайн школы U-Verse" label="&lt;font style=&quot;font-size: 16px&quot;&gt;&lt;b&gt;&lt;div style=&quot;text-align: left&quot;&gt;%c4Name%&lt;/div&gt;&lt;/b&gt;&lt;/font&gt;&lt;div style=&quot;text-align: left&quot;&gt;[%c4Application%]&lt;/div&gt;" id="eLePNKF138r7Ds8HGAkp-4">
          <mxCell style="rounded=1;fontSize=11;whiteSpace=wrap;html=1;dashed=1;arcSize=20;fillColor=none;strokeColor=#666666;fontColor=#333333;labelBackgroundColor=none;align=left;verticalAlign=bottom;labelBorderColor=none;spacingTop=0;spacing=10;dashPattern=8 4;metaEdit=1;rotatable=0;perimeter=rectanglePerimeter;noLabel=0;labelPadding=0;allowArrows=0;connectable=0;expand=0;recursiveResize=0;editable=1;pointerEvents=0;absoluteArcSize=1;points=[[0.25,0,0],[0.5,0,0],[0.75,0,0],[1,0.25,0],[1,0.5,0],[1,0.75,0],[0.75,1,0],[0.5,1,0],[0.25,1,0],[0,0.75,0],[0,0.5,0],[0,0.25,0]];hachureGap=4;fontFamily=Architects Daughter;fontSource=https%3A%2F%2Ffonts.googleapis.com%2Fcss%3Ffamily%3DArchitects%2BDaughter;" parent="1" vertex="1">
            <mxGeometry x="-410" y="-340" width="2210" height="1390" as="geometry" />
          </mxCell>
        </object>
        <object placeholders="1" c4Name="Преподаватель" c4Type="Person" c4Description="Создание курсов и обучение студентов" label="&lt;font style=&quot;font-size: 16px&quot;&gt;&lt;b&gt;%c4Name%&lt;/b&gt;&lt;/font&gt;&lt;div&gt;[%c4Type%]&lt;/div&gt;&lt;br&gt;&lt;div&gt;&lt;font style=&quot;font-size: 11px&quot;&gt;&lt;font color=&quot;#cccccc&quot;&gt;%c4Description%&lt;/font&gt;&lt;/font&gt;&lt;/div&gt;" id="eLePNKF138r7Ds8HGAkp-5">
          <mxCell style="html=1;fontSize=11;dashed=0;whiteSpace=wrap;fillColor=#083F75;strokeColor=#06315C;fontColor=#ffffff;shape=mxgraph.c4.person2;align=center;metaEdit=1;points=[[0.5,0,0],[1,0.5,0],[1,0.75,0],[0.75,1,0],[0.5,1,0],[0.25,1,0],[0,0.75,0],[0,0.5,0]];resizable=0;hachureGap=4;fontFamily=Times New Roman;" parent="1" vertex="1">
            <mxGeometry x="360" y="70" width="200" height="180" as="geometry" />
          </mxCell>
        </object>
        <object placeholders="1" c4Name="Администратор" c4Type="Person" c4Description="Поддержание работоспособности системы" label="&lt;font style=&quot;font-size: 16px&quot;&gt;&lt;b&gt;%c4Name%&lt;/b&gt;&lt;/font&gt;&lt;div&gt;[%c4Type%]&lt;/div&gt;&lt;br&gt;&lt;div&gt;&lt;font style=&quot;font-size: 11px&quot;&gt;&lt;font color=&quot;#cccccc&quot;&gt;%c4Description%&lt;/font&gt;&lt;/font&gt;&lt;/div&gt;" id="eLePNKF138r7Ds8HGAkp-6">
          <mxCell style="html=1;fontSize=11;dashed=0;whiteSpace=wrap;fillColor=#083F75;strokeColor=#06315C;fontColor=#ffffff;shape=mxgraph.c4.person2;align=center;metaEdit=1;points=[[0.5,0,0],[1,0.5,0],[1,0.75,0],[0.75,1,0],[0.5,1,0],[0.25,1,0],[0,0.75,0],[0,0.5,0]];resizable=0;hachureGap=4;fontFamily=Times New Roman;" parent="1" vertex="1">
            <mxGeometry x="730" y="70" width="200" height="180" as="geometry" />
          </mxCell>
        </object>
        <object placeholders="1" c4Name="Модератор" c4Type="Person" c4Description="Проверка курсов и преподавателей " label="&lt;font style=&quot;font-size: 16px&quot;&gt;&lt;b&gt;%c4Name%&lt;/b&gt;&lt;/font&gt;&lt;div&gt;[%c4Type%]&lt;/div&gt;&lt;br&gt;&lt;div&gt;&lt;font style=&quot;font-size: 11px&quot;&gt;&lt;font color=&quot;#cccccc&quot;&gt;%c4Description%&lt;/font&gt;&lt;/font&gt;&lt;/div&gt;" id="eLePNKF138r7Ds8HGAkp-7">
          <mxCell style="html=1;fontSize=11;dashed=0;whiteSpace=wrap;fillColor=#083F75;strokeColor=#06315C;fontColor=#ffffff;shape=mxgraph.c4.person2;align=center;metaEdit=1;points=[[0.5,0,0],[1,0.5,0],[1,0.75,0],[0.75,1,0],[0.5,1,0],[0.25,1,0],[0,0.75,0],[0,0.5,0]];resizable=0;hachureGap=4;fontFamily=Times New Roman;" parent="1" vertex="1">
            <mxGeometry x="1010" y="70" width="200" height="180" as="geometry" />
          </mxCell>
        </object>
        <object placeholders="1" c4Name="Сервис приема платежей (ЮКасса / Тинькофф Пэй / Райф Пэй)" c4Type="Software System" c4Description="Платежная система" label="&lt;font style=&quot;font-size: 16px&quot;&gt;&lt;b&gt;%c4Name%&lt;/b&gt;&lt;/font&gt;&lt;div&gt;[%c4Type%]&lt;/div&gt;&lt;br&gt;&lt;div&gt;&lt;font style=&quot;font-size: 11px&quot;&gt;&lt;font color=&quot;#cccccc&quot;&gt;%c4Description%&lt;/font&gt;&lt;/div&gt;" id="eLePNKF138r7Ds8HGAkp-17">
          <mxCell style="rounded=1;whiteSpace=wrap;html=1;labelBackgroundColor=none;fillColor=#8C8496;fontColor=#ffffff;align=center;arcSize=10;strokeColor=#736782;metaEdit=1;resizable=0;points=[[0.25,0,0],[0.5,0,0],[0.75,0,0],[1,0.25,0],[1,0.5,0],[1,0.75,0],[0.75,1,0],[0.5,1,0],[0.25,1,0],[0,0.75,0],[0,0.5,0],[0,0.25,0]];" parent="1" vertex="1">
            <mxGeometry x="50" y="840" width="240" height="120" as="geometry" />
          </mxCell>
        </object>
        <object placeholders="1" c4Name="Сервис рассылки Email (Unisender)" c4Type="Software System" c4Description="Сервис рассылки Email " label="&lt;font style=&quot;font-size: 16px&quot;&gt;&lt;b&gt;%c4Name%&lt;/b&gt;&lt;/font&gt;&lt;div&gt;[%c4Type%]&lt;/div&gt;&lt;br&gt;&lt;div&gt;&lt;font style=&quot;font-size: 11px&quot;&gt;&lt;font color=&quot;#cccccc&quot;&gt;%c4Description%&lt;/font&gt;&lt;/div&gt;" id="eLePNKF138r7Ds8HGAkp-18">
          <mxCell style="rounded=1;whiteSpace=wrap;html=1;labelBackgroundColor=none;fillColor=#8C8496;fontColor=#ffffff;align=center;arcSize=10;strokeColor=#736782;metaEdit=1;resizable=0;points=[[0.25,0,0],[0.5,0,0],[0.75,0,0],[1,0.25,0],[1,0.5,0],[1,0.75,0],[0.75,1,0],[0.5,1,0],[0.25,1,0],[0,0.75,0],[0,0.5,0],[0,0.25,0]];" parent="1" vertex="1">
            <mxGeometry x="1410" y="460" width="240" height="120" as="geometry" />
          </mxCell>
        </object>
        <object placeholders="1" c4Name="Библиотека разработчика для просмотра PDF-документов онлайн" c4Type="Software System" c4Description="просмотр PDF файлов" label="&lt;font style=&quot;font-size: 16px&quot;&gt;&lt;b&gt;%c4Name%&lt;/b&gt;&lt;/font&gt;&lt;div&gt;[%c4Type%]&lt;/div&gt;&lt;br&gt;&lt;div&gt;&lt;font style=&quot;font-size: 11px&quot;&gt;&lt;font color=&quot;#cccccc&quot;&gt;%c4Description%&lt;/font&gt;&lt;/div&gt;" id="eLePNKF138r7Ds8HGAkp-19">
          <mxCell style="rounded=1;whiteSpace=wrap;html=1;labelBackgroundColor=none;fillColor=#8C8496;fontColor=#ffffff;align=center;arcSize=10;strokeColor=#736782;metaEdit=1;resizable=0;points=[[0.25,0,0],[0.5,0,0],[0.75,0,0],[1,0.25,0],[1,0.5,0],[1,0.75,0],[0.75,1,0],[0.5,1,0],[0.25,1,0],[0,0.75,0],[0,0.5,0],[0,0.25,0]];" parent="1" vertex="1">
            <mxGeometry x="480" y="840" width="240" height="120" as="geometry" />
          </mxCell>
        </object>
        <object placeholders="1" c4Name="Pruffme для онлайн-занятий" c4Type="Software System" c4Description="проведение онлайн занятий" label="&lt;font style=&quot;font-size: 16px&quot;&gt;&lt;b&gt;%c4Name%&lt;/b&gt;&lt;/font&gt;&lt;div&gt;[%c4Type%]&lt;/div&gt;&lt;br&gt;&lt;div&gt;&lt;font style=&quot;font-size: 11px&quot;&gt;&lt;font color=&quot;#cccccc&quot;&gt;%c4Description%&lt;/font&gt;&lt;/div&gt;" id="eLePNKF138r7Ds8HGAkp-20">
          <mxCell style="rounded=1;whiteSpace=wrap;html=1;labelBackgroundColor=none;fillColor=#8C8496;fontColor=#ffffff;align=center;arcSize=10;strokeColor=#736782;metaEdit=1;resizable=0;points=[[0.25,0,0],[0.5,0,0],[0.75,0,0],[1,0.25,0],[1,0.5,0],[1,0.75,0],[0.75,1,0],[0.5,1,0],[0.25,1,0],[0,0.75,0],[0,0.5,0],[0,0.25,0]];" parent="1" vertex="1">
            <mxGeometry x="-310" y="630" width="240" height="120" as="geometry" />
          </mxCell>
        </object>
        <object placeholders="1" c4Name="Рассылка push-уведомлений" c4Type="Software System" c4Description="Сервис рассылки push-уведомлений&#xa;(Firebase)" label="&lt;font style=&quot;font-size: 16px&quot;&gt;&lt;b&gt;%c4Name%&lt;/b&gt;&lt;/font&gt;&lt;div&gt;[%c4Type%]&lt;/div&gt;&lt;br&gt;&lt;div&gt;&lt;font style=&quot;font-size: 11px&quot;&gt;&lt;font color=&quot;#cccccc&quot;&gt;%c4Description%&lt;/font&gt;&lt;/div&gt;" id="eLePNKF138r7Ds8HGAkp-21">
          <mxCell style="rounded=1;whiteSpace=wrap;html=1;labelBackgroundColor=none;fillColor=#8C8496;fontColor=#ffffff;align=center;arcSize=14;strokeColor=#736782;metaEdit=1;resizable=0;points=[[0.25,0,0],[0.5,0,0],[0.75,0,0],[1,0.25,0],[1,0.5,0],[1,0.75,0],[0.75,1,0],[0.5,1,0],[0.25,1,0],[0,0.75,0],[0,0.5,0],[0,0.25,0]];" parent="1" vertex="1">
            <mxGeometry x="1340" y="310" width="240" height="120" as="geometry" />
          </mxCell>
        </object>
        <object placeholders="1" c4Type="Relationship" c4Description="Отправляет e-mail уведомления с помощью" label="&lt;div style=&quot;text-align: left&quot;&gt;&lt;div style=&quot;text-align: center&quot;&gt;&lt;span&gt;%c4Description%&lt;/span&gt;&lt;/div&gt;&lt;/div&gt;" id="eLePNKF138r7Ds8HGAkp-24">
          <mxCell style="endArrow=blockThin;html=1;fontSize=13;fontColor=#404040;strokeWidth=1;endFill=1;strokeColor=#000000;elbow=vertical;metaEdit=1;endSize=14;startSize=14;jumpStyle=arc;jumpSize=16;rounded=0;edgeStyle=orthogonalEdgeStyle;entryX=0;entryY=0.5;entryDx=0;entryDy=0;entryPerimeter=0;dashed=1;exitX=1;exitY=0.75;exitDx=0;exitDy=0;exitPerimeter=0;fontFamily=Times New Roman;fontStyle=0" parent="1" source="eLePNKF138r7Ds8HGAkp-3" target="eLePNKF138r7Ds8HGAkp-18" edge="1">
            <mxGeometry x="0.0001" width="240" relative="1" as="geometry">
              <mxPoint x="710" y="510" as="sourcePoint" />
              <mxPoint x="945" y="473.5" as="targetPoint" />
              <Array as="points">
                <mxPoint x="740" y="520" />
                <mxPoint x="740" y="520" />
              </Array>
              <mxPoint as="offset" />
            </mxGeometry>
          </mxCell>
        </object>
        <object c4Type="Relationship" c4Description="Получает уведомления&#xa; о успешной оплате, открытия &#xa;доступа к курсам и выдаче итогового&#xa;сертефиката" label="&lt;div style=&quot;text-align: left&quot;&gt;&lt;div style=&quot;text-align: center&quot;&gt;&lt;span&gt;%c4Description%&lt;/span&gt;&lt;/div&gt;&lt;/div&gt;" placeholders="1" id="eLePNKF138r7Ds8HGAkp-26">
          <mxCell style="endArrow=blockThin;html=1;fontSize=13;fontColor=#404040;strokeWidth=1;endFill=1;strokeColor=#000000;elbow=vertical;metaEdit=1;endSize=14;startSize=14;jumpStyle=none;jumpSize=16;rounded=0;edgeStyle=orthogonalEdgeStyle;exitX=0.898;exitY=0.024;exitDx=0;exitDy=0;exitPerimeter=0;dashed=1;entryX=0.238;entryY=0.362;entryDx=0;entryDy=0;entryPerimeter=0;fontFamily=Times New Roman;fontStyle=0" parent="1" source="eLePNKF138r7Ds8HGAkp-18" target="eLePNKF138r7Ds8HGAkp-1" edge="1">
            <mxGeometry x="0.7184" width="240" relative="1" as="geometry">
              <mxPoint x="1636.48" y="400.7199999999998" as="sourcePoint" />
              <mxPoint x="190" y="10" as="targetPoint" />
              <Array as="points">
                <mxPoint x="1626" y="-320" />
                <mxPoint x="-2" y="-320" />
              </Array>
              <mxPoint as="offset" />
            </mxGeometry>
          </mxCell>
        </object>
        <object placeholders="1" c4Type="Relationship" id="eLePNKF138r7Ds8HGAkp-29">
          <mxCell style="endArrow=blockThin;html=1;fontSize=10;fontColor=#404040;strokeWidth=1;endFill=1;strokeColor=#000000;elbow=vertical;metaEdit=1;endSize=14;startSize=14;jumpStyle=arc;jumpSize=16;rounded=0;edgeStyle=orthogonalEdgeStyle;dashed=1;" parent="1" edge="1">
            <mxGeometry width="240" relative="1" as="geometry">
              <mxPoint x="400" y="-320" as="sourcePoint" />
              <mxPoint x="400" y="137" as="targetPoint" />
              <Array as="points">
                <mxPoint x="400" y="137" />
              </Array>
            </mxGeometry>
          </mxCell>
        </object>
        <mxCell id="eLePNKF138r7Ds8HGAkp-30" value="Получает уведомления о регистрации&lt;div&gt;в Онлайн школе, о прохождение модерации&lt;/div&gt;&lt;div&gt;и расписание&lt;/div&gt;" style="edgeLabel;html=1;align=center;verticalAlign=middle;resizable=0;points=[];fontSize=13;fontFamily=Times New Roman;" parent="eLePNKF138r7Ds8HGAkp-29" vertex="1" connectable="0">
          <mxGeometry x="-0.1665" relative="1" as="geometry">
            <mxPoint y="-120" as="offset" />
          </mxGeometry>
        </mxCell>
        <object placeholders="1" c4Type="Relationship" c4Description="Принимает платежи используя" label="&lt;div style=&quot;text-align: left&quot;&gt;&lt;div style=&quot;text-align: center&quot;&gt;&lt;span&gt;%c4Description%&lt;/span&gt;&lt;/div&gt;&lt;/div&gt;" id="eLePNKF138r7Ds8HGAkp-33">
          <mxCell style="endArrow=blockThin;html=1;fontSize=13;fontColor=#404040;strokeWidth=1;endFill=1;strokeColor=#000000;elbow=vertical;metaEdit=1;endSize=14;startSize=14;jumpStyle=arc;jumpSize=16;rounded=0;edgeStyle=orthogonalEdgeStyle;entryX=0.995;entryY=0.635;entryDx=0;entryDy=0;entryPerimeter=0;dashed=1;fontStyle=0;fontFamily=Times New Roman;exitX=0.167;exitY=1;exitDx=0;exitDy=0;exitPerimeter=0;" parent="1" source="eLePNKF138r7Ds8HGAkp-3" target="eLePNKF138r7Ds8HGAkp-17" edge="1">
            <mxGeometry x="-0.3621" width="240" relative="1" as="geometry">
              <mxPoint x="510" y="620" as="sourcePoint" />
              <mxPoint x="330" y="940" as="targetPoint" />
              <Array as="points">
                <mxPoint x="540" y="620" />
                <mxPoint x="331" y="620" />
                <mxPoint x="331" y="916" />
              </Array>
              <mxPoint as="offset" />
            </mxGeometry>
          </mxCell>
        </object>
        <object placeholders="1" c4Type="Relationship" c4Description="Оплачивает заказы используя" label="&lt;div style=&quot;text-align: left&quot;&gt;&lt;div style=&quot;text-align: center&quot;&gt;&lt;span&gt;%c4Description%&lt;/span&gt;&lt;/div&gt;&lt;/div&gt;" id="eLePNKF138r7Ds8HGAkp-36">
          <mxCell style="endArrow=blockThin;html=1;fontSize=13;fontColor=#404040;strokeWidth=1;endFill=1;strokeColor=#000000;elbow=vertical;metaEdit=1;endSize=14;startSize=14;jumpStyle=arc;jumpSize=16;rounded=0;edgeStyle=orthogonalEdgeStyle;dashed=1;entryX=0.013;entryY=0.441;entryDx=0;entryDy=0;entryPerimeter=0;fontStyle=0;fontFamily=Times New Roman;" parent="1" target="eLePNKF138r7Ds8HGAkp-17" edge="1">
            <mxGeometry x="-0.1831" width="240" relative="1" as="geometry">
              <mxPoint x="-10" y="250" as="sourcePoint" />
              <mxPoint x="110" y="830" as="targetPoint" />
              <Array as="points">
                <mxPoint x="-10" y="893" />
              </Array>
              <mxPoint y="1" as="offset" />
            </mxGeometry>
          </mxCell>
        </object>
        <object placeholders="1" c4Type="Relationship" c4Description="Просмотр и покупка курсов&#xa;прохождение курсов, регистрация&#xa; в онлайн школе" label="&lt;div style=&quot;text-align: left&quot;&gt;&lt;div style=&quot;text-align: center&quot;&gt;&lt;span&gt;%c4Description%&lt;/span&gt;&lt;/div&gt;&lt;/div&gt;" id="eLePNKF138r7Ds8HGAkp-37">
          <mxCell style="endArrow=blockThin;html=1;fontSize=13;fontColor=#404040;strokeWidth=1;endFill=1;strokeColor=#000000;elbow=vertical;metaEdit=1;endSize=14;startSize=14;jumpStyle=arc;jumpSize=16;rounded=0;edgeStyle=orthogonalEdgeStyle;dashed=1;fontFamily=Times New Roman;fontStyle=0" parent="1" edge="1">
            <mxGeometry x="-0.1389" width="240" relative="1" as="geometry">
              <mxPoint x="120" y="250" as="sourcePoint" />
              <mxPoint x="500" y="460" as="targetPoint" />
              <Array as="points">
                <mxPoint x="120" y="460" />
                <mxPoint x="500" y="460" />
              </Array>
              <mxPoint y="1" as="offset" />
            </mxGeometry>
          </mxCell>
        </object>
        <object placeholders="1" c4Type="Relationship" c4Description="Получает уведомления о изменениях &#xa;в купленных курсах и расписание" label="&lt;div style=&quot;text-align: left&quot;&gt;&lt;div style=&quot;text-align: center&quot;&gt;&lt;span&gt;%c4Description%&lt;/span&gt;&lt;/div&gt;&lt;/div&gt;" id="eLePNKF138r7Ds8HGAkp-40">
          <mxCell style="endArrow=blockThin;html=1;fontSize=13;fontColor=#404040;strokeWidth=1;endFill=1;strokeColor=#000000;elbow=vertical;metaEdit=1;endSize=14;startSize=14;jumpStyle=arc;jumpSize=16;rounded=0;edgeStyle=orthogonalEdgeStyle;exitX=0.5;exitY=0;exitDx=0;exitDy=0;exitPerimeter=0;dashed=1;entryX=0.8;entryY=0.389;entryDx=0;entryDy=0;entryPerimeter=0;fontStyle=0;fontFamily=Times New Roman;" parent="1" source="eLePNKF138r7Ds8HGAkp-21" target="eLePNKF138r7Ds8HGAkp-1" edge="1">
            <mxGeometry x="0.7889" width="240" relative="1" as="geometry">
              <mxPoint x="1460" y="300" as="sourcePoint" />
              <mxPoint x="250" y="80" as="targetPoint" />
              <Array as="points">
                <mxPoint x="1460" y="-180" />
                <mxPoint x="110" y="-180" />
              </Array>
              <mxPoint as="offset" />
            </mxGeometry>
          </mxCell>
        </object>
        <object placeholders="1" c4Type="Relationship" id="eLePNKF138r7Ds8HGAkp-42">
          <mxCell style="endArrow=blockThin;html=1;fontSize=10;fontColor=#404040;strokeWidth=1;endFill=1;strokeColor=#000000;elbow=vertical;metaEdit=1;endSize=14;startSize=14;jumpStyle=arc;jumpSize=16;rounded=0;edgeStyle=orthogonalEdgeStyle;entryX=0.81;entryY=0.374;entryDx=0;entryDy=0;entryPerimeter=0;dashed=1;" parent="1" target="eLePNKF138r7Ds8HGAkp-5" edge="1">
            <mxGeometry width="240" relative="1" as="geometry">
              <mxPoint x="522" y="-180" as="sourcePoint" />
              <mxPoint x="700" y="-90" as="targetPoint" />
              <Array as="points">
                <mxPoint x="522" y="-90" />
              </Array>
            </mxGeometry>
          </mxCell>
        </object>
        <mxCell id="eLePNKF138r7Ds8HGAkp-43" value="Получает уведомления о поступивших&amp;nbsp;&lt;div&gt;домашних работ&lt;/div&gt;" style="edgeLabel;html=1;align=center;verticalAlign=middle;resizable=0;points=[];fontSize=13;fontFamily=Times New Roman;" parent="eLePNKF138r7Ds8HGAkp-42" vertex="1" connectable="0">
          <mxGeometry x="-0.4424" y="-1" relative="1" as="geometry">
            <mxPoint as="offset" />
          </mxGeometry>
        </mxCell>
        <object placeholders="1" c4Type="Relationship" id="eLePNKF138r7Ds8HGAkp-44">
          <mxCell style="endArrow=blockThin;html=1;fontSize=10;fontColor=#404040;strokeWidth=1;endFill=1;strokeColor=#000000;elbow=vertical;metaEdit=1;endSize=14;startSize=14;jumpStyle=arc;jumpSize=16;rounded=0;edgeStyle=orthogonalEdgeStyle;entryX=0.804;entryY=0.374;entryDx=0;entryDy=0;entryPerimeter=0;dashed=1;" parent="1" target="eLePNKF138r7Ds8HGAkp-6" edge="1">
            <mxGeometry width="240" relative="1" as="geometry">
              <mxPoint x="891" y="-180" as="sourcePoint" />
              <mxPoint x="1000" y="-40" as="targetPoint" />
              <Array as="points">
                <mxPoint x="890" y="50" />
                <mxPoint x="890" y="50" />
              </Array>
            </mxGeometry>
          </mxCell>
        </object>
        <mxCell id="eLePNKF138r7Ds8HGAkp-45" value="Получает уведомления об обращениях&lt;div&gt;в службу поддержки&lt;/div&gt;" style="edgeLabel;html=1;align=center;verticalAlign=middle;resizable=0;points=[];fontSize=13;fontFamily=Times New Roman;" parent="eLePNKF138r7Ds8HGAkp-44" vertex="1" connectable="0">
          <mxGeometry x="-0.4945" y="-1" relative="1" as="geometry">
            <mxPoint as="offset" />
          </mxGeometry>
        </mxCell>
        <object placeholders="1" c4Type="Relationship" id="eLePNKF138r7Ds8HGAkp-46">
          <mxCell style="endArrow=blockThin;html=1;fontSize=10;fontColor=#404040;strokeWidth=1;endFill=1;strokeColor=#000000;elbow=vertical;metaEdit=1;endSize=14;startSize=14;jumpStyle=arc;jumpSize=16;rounded=0;edgeStyle=orthogonalEdgeStyle;entryX=0.182;entryY=0.374;entryDx=0;entryDy=0;entryPerimeter=0;dashed=1;" parent="1" target="eLePNKF138r7Ds8HGAkp-6" edge="1">
            <mxGeometry width="240" relative="1" as="geometry">
              <mxPoint x="766" y="-320" as="sourcePoint" />
              <mxPoint x="800" y="-60" as="targetPoint" />
            </mxGeometry>
          </mxCell>
        </object>
        <mxCell id="eLePNKF138r7Ds8HGAkp-47" value="Получает уведомления о&amp;nbsp;&lt;div&gt;поступивших оплатах&lt;/div&gt;" style="edgeLabel;html=1;align=center;verticalAlign=middle;resizable=0;points=[];fontSize=13;fontFamily=Times New Roman;" parent="eLePNKF138r7Ds8HGAkp-46" vertex="1" connectable="0">
          <mxGeometry x="-0.8047" y="-2" relative="1" as="geometry">
            <mxPoint x="16" y="13" as="offset" />
          </mxGeometry>
        </mxCell>
        <object placeholders="1" c4Type="Relationship" id="eLePNKF138r7Ds8HGAkp-49">
          <mxCell style="endArrow=blockThin;html=1;fontSize=10;fontColor=#404040;strokeWidth=1;endFill=1;strokeColor=#000000;elbow=vertical;metaEdit=1;endSize=14;startSize=14;jumpStyle=arc;jumpSize=16;rounded=0;edgeStyle=orthogonalEdgeStyle;entryX=0.782;entryY=0.368;entryDx=0;entryDy=0;entryPerimeter=0;dashed=1;" parent="1" target="eLePNKF138r7Ds8HGAkp-7" edge="1">
            <mxGeometry width="240" relative="1" as="geometry">
              <mxPoint x="1166" y="-180" as="sourcePoint" />
              <mxPoint x="1260" y="-80" as="targetPoint" />
              <Array as="points">
                <mxPoint x="1166" y="-180" />
              </Array>
            </mxGeometry>
          </mxCell>
        </object>
        <mxCell id="eLePNKF138r7Ds8HGAkp-50" value="Получает уведомления о новых&amp;nbsp;&lt;div&gt;заявках преподавателей на регистрацию&lt;/div&gt;&lt;div&gt;и курсах для размещения&amp;nbsp;&lt;/div&gt;&lt;div&gt;в онлайн школе&lt;/div&gt;" style="edgeLabel;html=1;align=center;verticalAlign=middle;resizable=0;points=[];fontSize=13;fontFamily=Times New Roman;" parent="eLePNKF138r7Ds8HGAkp-49" vertex="1" connectable="0">
          <mxGeometry x="-0.5087" y="1" relative="1" as="geometry">
            <mxPoint x="13" y="-3" as="offset" />
          </mxGeometry>
        </mxCell>
        <object placeholders="1" c4Type="Relationship" id="eLePNKF138r7Ds8HGAkp-51">
          <mxCell style="endArrow=blockThin;html=1;fontSize=10;fontColor=#404040;strokeWidth=1;endFill=1;strokeColor=#000000;elbow=vertical;metaEdit=1;endSize=14;startSize=14;jumpStyle=arc;jumpSize=16;rounded=0;edgeStyle=orthogonalEdgeStyle;entryX=0.078;entryY=0.006;entryDx=0;entryDy=0;entryPerimeter=0;dashed=1;" parent="1" target="eLePNKF138r7Ds8HGAkp-3" edge="1">
            <mxGeometry width="240" relative="1" as="geometry">
              <mxPoint x="519" y="250" as="sourcePoint" />
              <mxPoint x="640" y="300" as="targetPoint" />
              <Array as="points">
                <mxPoint x="519" y="247" />
              </Array>
            </mxGeometry>
          </mxCell>
        </object>
        <mxCell id="eLePNKF138r7Ds8HGAkp-52" value="Регистрация в онлайн-школе&lt;div&gt;размещение своих курсов в онлайн школе&lt;/div&gt;" style="edgeLabel;html=1;align=center;verticalAlign=middle;resizable=0;points=[];fontSize=13;fontFamily=Times New Roman;" parent="eLePNKF138r7Ds8HGAkp-51" vertex="1" connectable="0">
          <mxGeometry x="-0.231" y="2" relative="1" as="geometry">
            <mxPoint y="48" as="offset" />
          </mxGeometry>
        </mxCell>
        <object placeholders="1" c4Type="Relationship" c4Description="Проводить онлайн занятия&#xa;с помощью" label="&lt;div style=&quot;text-align: left&quot;&gt;&lt;div style=&quot;text-align: center&quot;&gt;&lt;span&gt;%c4Description%&lt;/span&gt;&lt;/div&gt;&lt;/div&gt;" id="eLePNKF138r7Ds8HGAkp-54">
          <mxCell style="endArrow=blockThin;html=1;fontSize=13;fontColor=#404040;strokeWidth=1;endFill=1;strokeColor=#000000;elbow=vertical;metaEdit=1;endSize=14;startSize=14;jumpStyle=arc;jumpSize=16;rounded=0;edgeStyle=orthogonalEdgeStyle;exitX=0;exitY=0.75;exitDx=0;exitDy=0;exitPerimeter=0;dashed=1;fontStyle=0;fontFamily=Times New Roman;" parent="1" source="eLePNKF138r7Ds8HGAkp-3" edge="1">
            <mxGeometry x="-0.5997" y="2" width="240" relative="1" as="geometry">
              <mxPoint x="570" y="620" as="sourcePoint" />
              <mxPoint x="-70" y="680" as="targetPoint" />
              <Array as="points">
                <mxPoint x="270" y="510" />
                <mxPoint x="270" y="680" />
              </Array>
              <mxPoint as="offset" />
            </mxGeometry>
          </mxCell>
        </object>
        <object placeholders="1" c4Type="Relationship" c4Description="Доступ к онлайн урокам&#xa;для прохождения" label="&lt;div style=&quot;text-align: left&quot;&gt;&lt;div style=&quot;text-align: center&quot;&gt;&lt;span&gt;%c4Description%&lt;/span&gt;&lt;/div&gt;&lt;/div&gt;" id="eLePNKF138r7Ds8HGAkp-56">
          <mxCell style="endArrow=blockThin;html=1;fontSize=13;fontColor=#404040;strokeWidth=1;endFill=1;strokeColor=#000000;elbow=vertical;metaEdit=1;endSize=14;startSize=14;jumpStyle=arc;jumpSize=16;rounded=0;edgeStyle=orthogonalEdgeStyle;entryX=0.126;entryY=0.019;entryDx=0;entryDy=0;entryPerimeter=0;dashed=1;fontFamily=Times New Roman;fontStyle=0" parent="1" source="eLePNKF138r7Ds8HGAkp-1" target="eLePNKF138r7Ds8HGAkp-20" edge="1">
            <mxGeometry x="0.0819" width="240" relative="1" as="geometry">
              <mxPoint x="-240" y="160" as="sourcePoint" />
              <mxPoint x="-80" y="350" as="targetPoint" />
              <Array as="points">
                <mxPoint x="-280" y="160" />
              </Array>
              <mxPoint as="offset" />
            </mxGeometry>
          </mxCell>
        </object>
        <object placeholders="1" c4Type="Relationship" id="eLePNKF138r7Ds8HGAkp-57">
          <mxCell style="endArrow=blockThin;html=1;fontSize=10;fontColor=#404040;strokeWidth=1;endFill=1;strokeColor=#000000;elbow=vertical;metaEdit=1;endSize=14;startSize=14;jumpStyle=arc;jumpSize=16;rounded=0;edgeStyle=orthogonalEdgeStyle;exitX=-0.003;exitY=0.689;exitDx=0;exitDy=0;exitPerimeter=0;entryX=0.671;entryY=0.012;entryDx=0;entryDy=0;entryPerimeter=0;dashed=1;" parent="1" source="eLePNKF138r7Ds8HGAkp-5" target="eLePNKF138r7Ds8HGAkp-20" edge="1">
            <mxGeometry width="240" relative="1" as="geometry">
              <mxPoint x="340" y="410" as="sourcePoint" />
              <mxPoint x="-170" y="610" as="targetPoint" />
              <Array as="points">
                <mxPoint x="290" y="194" />
                <mxPoint x="290" y="380" />
                <mxPoint x="-150" y="380" />
                <mxPoint x="-150" y="610" />
                <mxPoint x="-149" y="610" />
              </Array>
            </mxGeometry>
          </mxCell>
        </object>
        <mxCell id="eLePNKF138r7Ds8HGAkp-58" value="Доступ к онлайн урокам для проведения" style="edgeLabel;html=1;align=center;verticalAlign=middle;resizable=0;points=[];fontSize=13;fontFamily=Times New Roman;" parent="eLePNKF138r7Ds8HGAkp-57" vertex="1" connectable="0">
          <mxGeometry x="-0.704" y="1" relative="1" as="geometry">
            <mxPoint as="offset" />
          </mxGeometry>
        </mxCell>
        <object placeholders="1" c4Type="Relationship" c4Description="Обеспечение эффективной&#xa;работы онлайн школы" label="&lt;div style=&quot;text-align: left&quot;&gt;&lt;div style=&quot;text-align: center&quot;&gt;&lt;span&gt;%c4Description%&lt;/span&gt;&lt;/div&gt;&lt;/div&gt;" id="eLePNKF138r7Ds8HGAkp-59">
          <mxCell style="endArrow=blockThin;html=1;fontSize=13;fontColor=#404040;strokeWidth=1;endFill=1;strokeColor=#000000;elbow=vertical;metaEdit=1;endSize=14;startSize=14;jumpStyle=arc;jumpSize=16;rounded=0;edgeStyle=orthogonalEdgeStyle;exitX=0;exitY=0.61;exitDx=0;exitDy=0;exitPerimeter=0;dashed=1;fontFamily=Times New Roman;fontStyle=0" parent="1" source="eLePNKF138r7Ds8HGAkp-6" target="eLePNKF138r7Ds8HGAkp-3" edge="1">
            <mxGeometry x="-0.0341" width="240" relative="1" as="geometry">
              <mxPoint x="713" y="180" as="sourcePoint" />
              <mxPoint x="720" y="390" as="targetPoint" />
              <Array as="points">
                <mxPoint x="660" y="180" />
              </Array>
              <mxPoint as="offset" />
            </mxGeometry>
          </mxCell>
        </object>
        <object placeholders="1" c4Type="Relationship" c4Description="Проверка преподавателей и&#xa;модерация созданных курсов" label="&lt;div style=&quot;text-align: left&quot;&gt;&lt;div style=&quot;text-align: center&quot;&gt;&lt;span&gt;%c4Description%&lt;/span&gt;&lt;/div&gt;&lt;/div&gt;" id="eLePNKF138r7Ds8HGAkp-60">
          <mxCell style="endArrow=blockThin;html=1;fontSize=13;fontColor=#404040;strokeWidth=1;endFill=1;strokeColor=#000000;elbow=vertical;metaEdit=1;endSize=14;startSize=14;jumpStyle=arc;jumpSize=16;rounded=0;edgeStyle=orthogonalEdgeStyle;exitX=-0.004;exitY=0.699;exitDx=0;exitDy=0;exitPerimeter=0;entryX=0.918;entryY=0.013;entryDx=0;entryDy=0;entryPerimeter=0;dashed=1;fontFamily=Times New Roman;fontStyle=0" parent="1" source="eLePNKF138r7Ds8HGAkp-7" target="eLePNKF138r7Ds8HGAkp-3" edge="1">
            <mxGeometry x="-0.0931" width="240" relative="1" as="geometry">
              <mxPoint x="780" y="320" as="sourcePoint" />
              <mxPoint x="1020" y="320" as="targetPoint" />
              <Array as="points">
                <mxPoint x="1000" y="196" />
                <mxPoint x="1000" y="320" />
                <mxPoint x="720" y="320" />
              </Array>
              <mxPoint as="offset" />
            </mxGeometry>
          </mxCell>
        </object>
        <object placeholders="1" c4Type="Relationship" c4Description="Просмотр PDF файлов" label="&lt;div style=&quot;text-align: left&quot;&gt;&lt;div style=&quot;text-align: center&quot;&gt;&lt;span&gt;%c4Description%&lt;/span&gt;&lt;/div&gt;&lt;/div&gt;" id="eLePNKF138r7Ds8HGAkp-61">
          <mxCell style="endArrow=blockThin;html=1;fontSize=13;fontColor=#404040;strokeWidth=1;endFill=1;strokeColor=#000000;elbow=vertical;metaEdit=1;endSize=14;startSize=14;jumpStyle=arc;jumpSize=16;rounded=0;edgeStyle=orthogonalEdgeStyle;fontFamily=Times New Roman;fontStyle=0;dashed=1;entryX=0.5;entryY=0;entryDx=0;entryDy=0;entryPerimeter=0;" parent="1" target="eLePNKF138r7Ds8HGAkp-19" edge="1">
            <mxGeometry x="-0.1062" width="240" relative="1" as="geometry">
              <mxPoint x="600" y="540" as="sourcePoint" />
              <mxPoint x="860" y="830" as="targetPoint" />
              <Array as="points">
                <mxPoint x="600" y="540" />
              </Array>
              <mxPoint as="offset" />
            </mxGeometry>
          </mxCell>
        </object>
        <object placeholders="1" c4Type="Relationship" id="eLePNKF138r7Ds8HGAkp-63">
          <mxCell style="endArrow=blockThin;html=1;fontSize=10;fontColor=#404040;strokeWidth=1;endFill=1;strokeColor=#000000;elbow=vertical;metaEdit=1;endSize=14;startSize=14;jumpStyle=arc;jumpSize=16;rounded=0;edgeStyle=orthogonalEdgeStyle;exitX=0.156;exitY=0.981;exitDx=0;exitDy=0;exitPerimeter=0;entryX=1;entryY=0.25;entryDx=0;entryDy=0;entryPerimeter=0;dashed=1;" parent="1" source="eLePNKF138r7Ds8HGAkp-7" target="eLePNKF138r7Ds8HGAkp-19" edge="1">
            <mxGeometry width="240" relative="1" as="geometry">
              <mxPoint x="690" y="570" as="sourcePoint" />
              <mxPoint x="930" y="570" as="targetPoint" />
              <Array as="points">
                <mxPoint x="1041" y="350" />
                <mxPoint x="910" y="350" />
                <mxPoint x="910" y="870" />
              </Array>
            </mxGeometry>
          </mxCell>
        </object>
        <mxCell id="eLePNKF138r7Ds8HGAkp-64" value="Просмотр PDF документов" style="edgeLabel;html=1;align=center;verticalAlign=middle;resizable=0;points=[];" parent="eLePNKF138r7Ds8HGAkp-63" vertex="1" connectable="0">
          <mxGeometry x="0.2078" y="-2" relative="1" as="geometry">
            <mxPoint as="offset" />
          </mxGeometry>
        </mxCell>
        <object placeholders="1" c4Name="System Context Diagram для онлайн школы U-Verse" c4Type="ContainerScopeBoundary" c4Application="" label="&lt;font style=&quot;font-size: 16px&quot;&gt;&lt;b&gt;&lt;div style=&quot;text-align: left&quot;&gt;%c4Name%&lt;/div&gt;&lt;/b&gt;&lt;/font&gt;&lt;div style=&quot;text-align: left&quot;&gt;[%c4Application%]&lt;/div&gt;" id="eLePNKF138r7Ds8HGAkp-66">
          <mxCell style="rounded=1;fontSize=11;whiteSpace=wrap;html=1;dashed=1;arcSize=20;fillColor=none;strokeColor=#666666;fontColor=#333333;labelBackgroundColor=none;align=left;verticalAlign=bottom;labelBorderColor=none;spacingTop=0;spacing=10;dashPattern=8 4;metaEdit=1;rotatable=0;perimeter=rectanglePerimeter;noLabel=0;labelPadding=0;allowArrows=0;connectable=0;expand=0;recursiveResize=0;editable=1;pointerEvents=0;absoluteArcSize=1;points=[[0.25,0,0],[0.5,0,0],[0.75,0,0],[1,0.25,0],[1,0.5,0],[1,0.75,0],[0.75,1,0],[0.5,1,0],[0.25,1,0],[0,0.75,0],[0,0.5,0],[0,0.25,0]];" parent="1" vertex="1">
            <mxGeometry x="-410" y="1150" width="750" height="530" as="geometry" />
          </mxCell>
        </object>
        <object placeholders="1" c4Name="Пользователи" c4Type="Person" c4Description="Описание возможностей в системе" label="&lt;font style=&quot;font-size: 16px&quot;&gt;&lt;b&gt;%c4Name%&lt;/b&gt;&lt;/font&gt;&lt;div&gt;[%c4Type%]&lt;/div&gt;&lt;br&gt;&lt;div&gt;&lt;font style=&quot;font-size: 11px&quot;&gt;&lt;font color=&quot;#cccccc&quot;&gt;%c4Description%&lt;/font&gt;&lt;/div&gt;" id="eLePNKF138r7Ds8HGAkp-68">
          <mxCell style="html=1;fontSize=11;dashed=0;whiteSpace=wrap;fillColor=#083F75;strokeColor=#06315C;fontColor=#ffffff;shape=mxgraph.c4.person2;align=center;metaEdit=1;points=[[0.5,0,0],[1,0.5,0],[1,0.75,0],[0.75,1,0],[0.5,1,0],[0.25,1,0],[0,0.75,0],[0,0.5,0]];resizable=0;" parent="1" vertex="1">
            <mxGeometry x="-390" y="1160" width="200" height="180" as="geometry" />
          </mxCell>
        </object>
        <object placeholders="1" c4Name="Онлайн школа U-Verse" c4Type="Software System" c4Description="Описание назначение" label="&lt;font style=&quot;font-size: 16px&quot;&gt;&lt;b&gt;%c4Name%&lt;/b&gt;&lt;/font&gt;&lt;div&gt;[%c4Type%]&lt;/div&gt;&lt;br&gt;&lt;div&gt;&lt;font style=&quot;font-size: 11px&quot;&gt;&lt;font color=&quot;#cccccc&quot;&gt;%c4Description%&lt;/font&gt;&lt;/div&gt;" id="eLePNKF138r7Ds8HGAkp-69">
          <mxCell style="rounded=1;whiteSpace=wrap;html=1;labelBackgroundColor=none;fillColor=#1061B0;fontColor=#ffffff;align=center;arcSize=10;strokeColor=#0D5091;metaEdit=1;resizable=0;points=[[0.25,0,0],[0.5,0,0],[0.75,0,0],[1,0.25,0],[1,0.5,0],[1,0.75,0],[0.75,1,0],[0.5,1,0],[0.25,1,0],[0,0.75,0],[0,0.5,0],[0,0.25,0]];" parent="1" vertex="1">
            <mxGeometry x="-380" y="1400" width="240" height="120" as="geometry" />
          </mxCell>
        </object>
        <object placeholders="1" c4Name="Внешняя система" c4Type="Software System" c4Description="Описание назначение" label="&lt;font style=&quot;font-size: 16px&quot;&gt;&lt;b&gt;%c4Name%&lt;/b&gt;&lt;/font&gt;&lt;div&gt;[%c4Type%]&lt;/div&gt;&lt;br&gt;&lt;div&gt;&lt;font style=&quot;font-size: 11px&quot;&gt;&lt;font color=&quot;#cccccc&quot;&gt;%c4Description%&lt;/font&gt;&lt;/div&gt;" id="eLePNKF138r7Ds8HGAkp-70">
          <mxCell style="rounded=1;whiteSpace=wrap;html=1;labelBackgroundColor=none;fillColor=#8C8496;fontColor=#ffffff;align=center;arcSize=10;strokeColor=#736782;metaEdit=1;resizable=0;points=[[0.25,0,0],[0.5,0,0],[0.75,0,0],[1,0.25,0],[1,0.5,0],[1,0.75,0],[0.75,1,0],[0.5,1,0],[0.25,1,0],[0,0.75,0],[0,0.5,0],[0,0.25,0]];" parent="1" vertex="1">
            <mxGeometry x="-50" y="1400" width="240" height="120" as="geometry" />
          </mxCell>
        </object>
        <object placeholders="1" c4Type="Relationship" c4Description="Описание связей" label="&lt;div style=&quot;text-align: left&quot;&gt;&lt;div style=&quot;text-align: center&quot;&gt;&lt;b&gt;%c4Description%&lt;/b&gt;&lt;/div&gt;" id="eLePNKF138r7Ds8HGAkp-71">
          <mxCell style="endArrow=blockThin;html=1;fontSize=10;fontColor=#404040;strokeWidth=1;endFill=1;strokeColor=#828282;elbow=vertical;metaEdit=1;endSize=14;startSize=14;jumpStyle=arc;jumpSize=16;rounded=0;edgeStyle=orthogonalEdgeStyle;dashed=1;" parent="1" edge="1">
            <mxGeometry width="240" relative="1" as="geometry">
              <mxPoint x="-40" y="1300" as="sourcePoint" />
              <mxPoint x="200" y="1300" as="targetPoint" />
            </mxGeometry>
          </mxCell>
        </object>
      </root>
    </mxGraphModel>
  </diagram>
</mxfile>
